<svg width="16" height="15" viewBox="0 0 16 15" fill="none" xmlns="http://www.w3.org/2000/svg">
<path d="M14.5533 3.07576H15.9994V0.0703125L0.790039 15H15.9994V13.8643H14.5533C14.3935 13.8643 14.264 13.7372 14.264 13.5804C14.264 13.4236 14.3935 13.2965 14.5533 13.2965H15.9994V12.1609H15.1317C14.972 12.1609 14.8425 12.0337 14.8425 11.877C14.8425 11.7202 14.972 11.593 15.1317 11.593H15.9994V10.4574H14.5533C14.3935 10.4574 14.264 10.3303 14.264 10.1735C14.264 10.0167 14.3935 9.88959 14.5533 9.88959H15.9994V8.75395H15.1317C14.972 8.75395 14.8425 8.62683 14.8425 8.47004C14.8425 8.31326 14.972 8.18613 15.1317 8.18613H15.9994V7.0505H14.5533C14.3935 7.0505 14.264 6.92337 14.264 6.76659C14.264 6.6098 14.3935 6.48268 14.5533 6.48268H15.9994V5.34704H15.1317C14.972 5.34704 14.8425 5.21992 14.8425 5.06313C14.8425 4.90634 14.972 4.77922 15.1317 4.77922H15.9994V3.64358H14.5533C14.3935 3.64358 14.264 3.51646 14.264 3.35967C14.264 3.20288 14.3935 3.07576 14.5533 3.07576ZM13.6856 12.4448C13.6856 12.6016 13.5561 12.7287 13.3964 12.7287H7.07442C6.95748 12.7287 6.85199 12.6595 6.80722 12.5533C6.76245 12.4473 6.78731 12.3251 6.86992 12.244L13.1919 6.03865C13.2746 5.95742 13.399 5.93316 13.5071 5.9771C13.6151 6.02105 13.6856 6.12446 13.6856 6.23938V12.4448Z" fill="white"/>
</svg>
