<svg width="16" height="15" fill="none" xmlns="http://www.w3.org/2000/svg"><path d="M14.553 3.076H16V.07L.79 15H16v-1.136h-1.447a.287.287 0 01-.289-.284c0-.156.13-.284.29-.284h1.445v-1.135h-.867a.287.287 0 01-.29-.284c0-.157.13-.284.29-.284h.867v-1.136h-1.446a.287.287 0 01-.289-.284c0-.156.13-.283.29-.283h1.445V8.754h-.867a.287.287 0 01-.29-.284c0-.157.13-.284.29-.284h.867V7.051h-1.446a.287.287 0 01-.289-.284c0-.157.13-.284.29-.284h1.445V5.347h-.867a.287.287 0 01-.29-.284c0-.157.13-.284.29-.284h.867V3.644h-1.446a.287.287 0 01-.289-.284c0-.157.13-.284.29-.284zm-.867 9.369c0 .157-.13.284-.29.284H7.074a.29.29 0 01-.267-.176.28.28 0 01.063-.309l6.322-6.205a.293.293 0 01.315-.062.284.284 0 01.179.262v6.206z" fill="#fff"/></svg>